<svg id="Capa_1" enable-background="new 0 0 512 512" height="512" viewBox="0 0 512 512" width="512" xmlns="http://www.w3.org/2000/svg"><g><path d="m407 16c-57.891 0-105 47.109-105 105s47.109 105 105 105 105-47.109 105-105-47.109-105-105-105zm45 120h-30v30h-30v-30h-30v-30h30v-30h30v30h30z"/><path d="m137 376c8.3 0 292.767 0 281.602 0l33.252-128.247c-10.422 3.702-21.396 6-32.807 7.029l-.315 1.218h-70.437l1.117-13.391c-10.366-4.933-19.834-11.239-28.546-18.532l-2.661 31.923h-62.41l-5.001-60h44.059c-6.172-9.201-10.779-19.396-14.561-30h-141.261l-20.004-90h-119.027v30h94.974l53.32 240h-11.294c-24.814 0-45 20.186-45 45s20.186 45 45 45h17.763c-1.681 4.715-2.763 9.716-2.763 15 0 24.814 20.186 45 45 45s45-20.186 45-45c0-5.284-1.082-10.285-2.763-15h65.526c-1.681 4.715-2.763 9.716-2.763 15 0 24.814 20.186 45 45 45s45-20.186 45-45c0-5.284-1.082-10.285-2.763-15h32.763v-30h-285c-8.276 0-15-6.724-15-15s6.724-15 15-15zm208.795-90h65.158l-15.555 60h-54.604zm-30.09 0-5.001 60h-47.41l-5.001-60zm-82.5 60h-54.168l-13.336-60h62.503zm-87.507-150h75.007l5.001 60h-66.671zm66.302 255c0 8.276-6.724 15-15 15s-15-6.724-15-15 6.724-15 15-15 15 6.724 15 15zm150 0c0 8.276-6.724 15-15 15s-15-6.724-15-15 6.724-15 15-15 15 6.724 15 15z"/></g></svg>