<svg height="480pt" viewBox="0 0 480 480" width="480pt" xmlns="http://www.w3.org/2000/svg"><path d="m240 0c-132.546875 0-240 107.453125-240 240s107.453125 240 240 240 240-107.453125 240-240c-.148438-132.484375-107.515625-239.851562-240-240zm0 464c-123.710938 0-224-100.289062-224-224s100.289062-224 224-224 224 100.289062 224 224c-.140625 123.652344-100.347656 223.859375-224 224zm0 0"/><path d="m336 328h-127.433594l111.601563-111.601562 11.3125-11.308594c15.503906-15.640625 15.449219-40.875-.125-56.445313-15.570313-15.574219-40.804688-15.628906-56.445313-.125l-11.308594 11.3125-113.136718 113.136719-.074219.09375c-.640625.679688-1.160156 1.464844-1.535156 2.320312-.09375.226563-.160157.441407-.238281.664063-.128907.300781-.238282.609375-.328126.921875l-12.121093 57.375c-.078125.453125-.113281.910156-.113281 1.367188 0 .105468-.054688.183593-.054688.289062v.121094c.023438.925781.207031 1.839844.542969 2.703125.082031.199219.160156.382812.257812.574219.367188.828124.878907 1.585937 1.503907 2.242187 1.507812 1.515625 3.558593 2.367187 5.695312 2.359375h192c4.417969 0 8-3.582031 8-8s-3.582031-8-8-8zm-150.71875-8.894531-30.882812 6.496093 6.53125-30.914062 12.191406 12.191406zm100.941406-159.273438c9.503906-9.054687 24.441406-9.054687 33.945313 0 9.375 9.371094 9.375 24.570313 0 33.945313l-5.664063 5.65625-33.9375-33.9375zm-16.964844 16.96875 16.964844 16.96875 16.976563 16.972657-101.832031 101.824218-16.96875-16.964844-16.964844-16.976562zm0 0"/></svg>